<svg width="111" height="20" viewBox="0 0 111 20" fill="none" xmlns="http://www.w3.org/2000/svg">
<rect width="110.26" height="20" rx="2" fill="#7289DA"/>
<path d="M0 2C0 0.895431 0.895431 0 2 0H53V20H2C0.895431 20 0 19.1046 0 18V2Z" fill="#505050"/>
<path d="M6.99023 14V5.46875H9.39844C10.1406 5.46875 10.7969 5.63281 11.3672 5.96094C11.9375 6.28906 12.377 6.75586 12.6855 7.36133C12.998 7.9668 13.1562 8.66211 13.1602 9.44727V9.99219C13.1602 10.7969 13.0039 11.502 12.6914 12.1074C12.3828 12.7129 11.9395 13.1777 11.3613 13.502C10.7871 13.8262 10.1172 13.9922 9.35156 14H6.99023ZM8.11523 6.39453V13.0801H9.29883C10.166 13.0801 10.8398 12.8105 11.3203 12.2715C11.8047 11.7324 12.0469 10.9648 12.0469 9.96875V9.4707C12.0469 8.50195 11.8184 7.75 11.3613 7.21484C10.9082 6.67578 10.2637 6.40234 9.42773 6.39453H8.11523ZM15.873 14H14.7891V7.66016H15.873V14ZM14.7012 5.97852C14.7012 5.80273 14.7539 5.6543 14.8594 5.5332C14.9688 5.41211 15.1289 5.35156 15.3398 5.35156C15.5508 5.35156 15.7109 5.41211 15.8203 5.5332C15.9297 5.6543 15.9844 5.80273 15.9844 5.97852C15.9844 6.1543 15.9297 6.30078 15.8203 6.41797C15.7109 6.53516 15.5508 6.59375 15.3398 6.59375C15.1289 6.59375 14.9688 6.53516 14.8594 6.41797C14.7539 6.30078 14.7012 6.1543 14.7012 5.97852ZM21.3047 12.3184C21.3047 12.0254 21.1934 11.7988 20.9707 11.6387C20.752 11.4746 20.3672 11.334 19.8164 11.2168C19.2695 11.0996 18.834 10.959 18.5098 10.7949C18.1895 10.6309 17.9512 10.4355 17.7949 10.209C17.6426 9.98242 17.5664 9.71289 17.5664 9.40039C17.5664 8.88086 17.7852 8.44141 18.2227 8.08203C18.6641 7.72266 19.2266 7.54297 19.9102 7.54297C20.6289 7.54297 21.2109 7.72852 21.6562 8.09961C22.1055 8.4707 22.3301 8.94531 22.3301 9.52344H21.2402C21.2402 9.22656 21.1133 8.9707 20.8594 8.75586C20.6094 8.54102 20.293 8.43359 19.9102 8.43359C19.5156 8.43359 19.207 8.51953 18.9844 8.69141C18.7617 8.86328 18.6504 9.08789 18.6504 9.36523C18.6504 9.62695 18.7539 9.82422 18.9609 9.95703C19.168 10.0898 19.541 10.2168 20.0801 10.3379C20.623 10.459 21.0625 10.6035 21.3984 10.7715C21.7344 10.9395 21.9824 11.1426 22.1426 11.3809C22.3066 11.6152 22.3887 11.9023 22.3887 12.2422C22.3887 12.8086 22.1621 13.2637 21.709 13.6074C21.2559 13.9473 20.668 14.1172 19.9453 14.1172C19.4375 14.1172 18.9883 14.0273 18.5977 13.8477C18.207 13.668 17.9004 13.418 17.6777 13.0977C17.459 12.7734 17.3496 12.4238 17.3496 12.0488H18.4336C18.4531 12.4121 18.5977 12.7012 18.8672 12.916C19.1406 13.127 19.5 13.2324 19.9453 13.2324C20.3555 13.2324 20.6836 13.1504 20.9297 12.9863C21.1797 12.8184 21.3047 12.5957 21.3047 12.3184ZM26.3438 13.2324C26.7305 13.2324 27.0684 13.1152 27.3574 12.8809C27.6465 12.6465 27.8066 12.3535 27.8379 12.002H28.8633C28.8438 12.3652 28.7188 12.7109 28.4883 13.0391C28.2578 13.3672 27.9492 13.6289 27.5625 13.8242C27.1797 14.0195 26.7734 14.1172 26.3438 14.1172C25.4805 14.1172 24.793 13.8301 24.2812 13.2559C23.7734 12.6777 23.5195 11.8887 23.5195 10.8887V10.707C23.5195 10.0898 23.6328 9.54102 23.8594 9.06055C24.0859 8.58008 24.4102 8.20703 24.832 7.94141C25.2578 7.67578 25.7598 7.54297 26.3379 7.54297C27.0488 7.54297 27.6387 7.75586 28.1074 8.18164C28.5801 8.60742 28.832 9.16016 28.8633 9.83984H27.8379C27.8066 9.42969 27.6504 9.09375 27.3691 8.83203C27.0918 8.56641 26.748 8.43359 26.3379 8.43359C25.7871 8.43359 25.3594 8.63281 25.0547 9.03125C24.7539 9.42578 24.6035 9.99805 24.6035 10.748V10.9531C24.6035 11.6836 24.7539 12.2461 25.0547 12.6406C25.3555 13.0352 25.7852 13.2324 26.3438 13.2324ZM29.7949 10.7715C29.7949 10.1504 29.916 9.5918 30.1582 9.0957C30.4043 8.59961 30.7441 8.2168 31.1777 7.94727C31.6152 7.67773 32.1133 7.54297 32.6719 7.54297C33.5352 7.54297 34.2324 7.8418 34.7637 8.43945C35.2988 9.03711 35.5664 9.83203 35.5664 10.8242V10.9004C35.5664 11.5176 35.4473 12.0723 35.209 12.5645C34.9746 13.0527 34.6367 13.4336 34.1953 13.707C33.7578 13.9805 33.2539 14.1172 32.6836 14.1172C31.8242 14.1172 31.127 13.8184 30.5918 13.2207C30.0605 12.623 29.7949 11.832 29.7949 10.8477V10.7715ZM30.8848 10.9004C30.8848 11.6035 31.0469 12.168 31.3711 12.5938C31.6992 13.0195 32.1367 13.2324 32.6836 13.2324C33.2344 13.2324 33.6719 13.0176 33.9961 12.5879C34.3203 12.1543 34.4824 11.5488 34.4824 10.7715C34.4824 10.0762 34.3164 9.51367 33.9844 9.08398C33.6562 8.65039 33.2188 8.43359 32.6719 8.43359C32.1367 8.43359 31.7051 8.64648 31.377 9.07227C31.0488 9.49805 30.8848 10.1074 30.8848 10.9004ZM39.9902 8.63281C39.8262 8.60547 39.6484 8.5918 39.457 8.5918C38.7461 8.5918 38.2637 8.89453 38.0098 9.5V14H36.9258V7.66016H37.9805L37.998 8.39258C38.3535 7.82617 38.8574 7.54297 39.5098 7.54297C39.7207 7.54297 39.8809 7.57031 39.9902 7.625V8.63281ZM40.6113 10.7773C40.6113 9.80469 40.8418 9.02344 41.3027 8.43359C41.7637 7.83984 42.3672 7.54297 43.1133 7.54297C43.8555 7.54297 44.4434 7.79688 44.877 8.30469V5H45.9609V14H44.9648L44.9121 13.3203C44.4785 13.8516 43.875 14.1172 43.1016 14.1172C42.3672 14.1172 41.7676 13.8164 41.3027 13.2148C40.8418 12.6133 40.6113 11.8281 40.6113 10.8594V10.7773ZM41.6953 10.9004C41.6953 11.6191 41.8438 12.1816 42.1406 12.5879C42.4375 12.9941 42.8477 13.1973 43.3711 13.1973C44.0586 13.1973 44.5605 12.8887 44.877 12.2715V9.35938C44.5527 8.76172 44.0547 8.46289 43.3828 8.46289C42.8516 8.46289 42.4375 8.66797 42.1406 9.07812C41.8438 9.48828 41.6953 10.0957 41.6953 10.9004Z" fill="white"/>
<path d="M66.413 9.38625C66.014 9.38625 65.699 9.72841 65.699 10.1544C65.699 10.5803 66.021 10.9225 66.413 10.9225C66.812 10.9225 67.127 10.5803 67.127 10.1544C67.127 9.72841 66.805 9.38625 66.413 9.38625ZM63.858 9.38625C63.459 9.38625 63.144 9.72841 63.144 10.1544C63.144 10.5803 63.466 10.9225 63.858 10.9225C64.257 10.9225 64.572 10.5803 64.572 10.1544C64.579 9.72841 64.257 9.38625 63.858 9.38625Z" fill="white"/>
<path d="M69.815 3.57663H60.435C59.644 3.57663 59 4.21904 59 5.00809V14.3649C59 15.154 59.644 15.7964 60.435 15.7964H68.373L68.002 14.5186L68.898 15.3425L69.745 16.1176L71.257 17.4234V5.00809C71.25 4.21904 70.606 3.57663 69.815 3.57663ZM67.113 12.6193C67.113 12.6193 66.861 12.319 66.651 12.0606C67.568 11.8023 67.918 11.2367 67.918 11.2367C67.631 11.4252 67.358 11.5579 67.113 11.6487C66.763 11.7953 66.427 11.8861 66.098 11.9489C65.426 12.0746 64.81 12.0397 64.285 11.9419C63.886 11.8651 63.543 11.7604 63.256 11.6417C63.095 11.5788 62.92 11.502 62.745 11.4043C62.724 11.3903 62.703 11.3833 62.682 11.3694C62.668 11.3624 62.661 11.3554 62.654 11.3554C62.528 11.2856 62.458 11.2367 62.458 11.2367C62.458 11.2367 62.794 11.7883 63.683 12.0537C63.473 12.319 63.214 12.6262 63.214 12.6262C61.667 12.5774 61.079 11.5719 61.079 11.5719C61.079 9.34436 62.087 7.53584 62.087 7.53584C63.095 6.78868 64.047 6.80963 64.047 6.80963L64.117 6.89343C62.857 7.24954 62.283 7.80118 62.283 7.80118C62.283 7.80118 62.437 7.71739 62.696 7.60566C63.445 7.27747 64.04 7.19368 64.285 7.16575C64.327 7.15877 64.362 7.15179 64.404 7.15179C64.831 7.09592 65.314 7.08196 65.818 7.13782C66.483 7.21463 67.197 7.41015 67.925 7.80118C67.925 7.80118 67.372 7.27748 66.182 6.92136L66.28 6.80963C66.28 6.80963 67.239 6.78868 68.24 7.53584C68.24 7.53584 69.248 9.34436 69.248 11.5719C69.248 11.5649 68.66 12.5704 67.113 12.6193Z" fill="white"/>
<path d="M82.5256 11.293C82.4202 12.1953 82.0862 12.8926 81.5237 13.3848C80.9651 13.873 80.2209 14.1172 79.2912 14.1172C78.2834 14.1172 77.4748 13.7559 76.8655 13.0332C76.26 12.3105 75.9573 11.3438 75.9573 10.1328V9.3125C75.9573 8.51953 76.0979 7.82227 76.3791 7.2207C76.6643 6.61914 77.0666 6.1582 77.5862 5.83789C78.1057 5.51367 78.7073 5.35156 79.3909 5.35156C80.2971 5.35156 81.0237 5.60547 81.5705 6.11328C82.1174 6.61719 82.4358 7.31641 82.5256 8.21094H81.3948C81.2971 7.53125 81.0842 7.03906 80.7561 6.73438C80.4319 6.42969 79.9768 6.27734 79.3909 6.27734C78.6721 6.27734 78.1077 6.54297 77.6975 7.07422C77.2912 7.60547 77.0881 8.36133 77.0881 9.3418V10.168C77.0881 11.0938 77.2815 11.8301 77.6682 12.377C78.0549 12.9238 78.5959 13.1973 79.2912 13.1973C79.9162 13.1973 80.3948 13.0566 80.7268 12.7754C81.0627 12.4902 81.2854 11.9961 81.3948 11.293H82.5256ZM84.9807 8.42773C85.4612 7.83789 86.0862 7.54297 86.8557 7.54297C88.1955 7.54297 88.8713 8.29883 88.883 9.81055V14H87.7991V9.80469C87.7952 9.34766 87.6897 9.00977 87.4827 8.79102C87.2795 8.57227 86.9612 8.46289 86.5276 8.46289C86.176 8.46289 85.8674 8.55664 85.6018 8.74414C85.3362 8.93164 85.1291 9.17773 84.9807 9.48242V14H83.8967V5H84.9807V8.42773ZM91.6838 14H90.5998V7.66016H91.6838V14ZM90.5119 5.97852C90.5119 5.80273 90.5647 5.6543 90.6702 5.5332C90.7795 5.41211 90.9397 5.35156 91.1506 5.35156C91.3616 5.35156 91.5217 5.41211 91.6311 5.5332C91.7405 5.6543 91.7952 5.80273 91.7952 5.97852C91.7952 6.1543 91.7405 6.30078 91.6311 6.41797C91.5217 6.53516 91.3616 6.59375 91.1506 6.59375C90.9397 6.59375 90.7795 6.53516 90.6702 6.41797C90.5647 6.30078 90.5119 6.1543 90.5119 5.97852ZM96.4885 8.63281C96.3244 8.60547 96.1467 8.5918 95.9553 8.5918C95.2444 8.5918 94.7619 8.89453 94.508 9.5V14H93.4241V7.66016H94.4787L94.4963 8.39258C94.8518 7.82617 95.3557 7.54297 96.008 7.54297C96.219 7.54297 96.3791 7.57031 96.4885 7.625V8.63281ZM102.846 10.9004C102.846 11.8652 102.625 12.6426 102.184 13.2324C101.742 13.8223 101.145 14.1172 100.391 14.1172C99.6213 14.1172 99.0159 13.873 98.5744 13.3848V16.4375H97.4905V7.66016H98.4807L98.5334 8.36328C98.9748 7.81641 99.5881 7.54297 100.373 7.54297C101.135 7.54297 101.737 7.83008 102.178 8.4043C102.623 8.97852 102.846 9.77734 102.846 10.8008V10.9004ZM101.762 10.7773C101.762 10.0625 101.61 9.49805 101.305 9.08398C101 8.66992 100.582 8.46289 100.051 8.46289C99.3948 8.46289 98.9026 8.75391 98.5744 9.33594V12.3652C98.8987 12.9434 99.3948 13.2324 100.063 13.2324C100.582 13.2324 100.994 13.0273 101.299 12.6172C101.608 12.2031 101.762 11.5898 101.762 10.7773Z" fill="white"/>
</svg>
